<svg xmlns="http://www.w3.org/2000/svg" width="56.917" height="56.914" viewBox="0 0 56.917 56.914">
  <g id="user" transform="translate(0)">
    <g id="Grupo_21" data-name="Grupo 21" transform="translate(0 0)">
      <path id="Caminho_19" data-name="Caminho 19" d="M49.02,8.768A28.446,28.446,0,1,0,8.757,48.943c.016.016.022.041.039.055.165.158.343.293.51.445.457.406.914.827,1.4,1.219.258.2.526.406.79.593.455.339.91.679,1.386.992.323.2.656.406.988.61.439.264.876.53,1.329.772.384.2.776.378,1.166.563.427.2.847.406,1.284.589s.876.325,1.319.484.825.3,1.25.435c.48.144.971.256,1.459.376.406.1.8.213,1.219.295.561.112,1.13.183,1.7.26.352.049.695.118,1.051.152.931.091,1.869.142,2.816.142s1.886-.051,2.816-.142c.356-.035.7-.1,1.051-.152.569-.077,1.138-.148,1.7-.26.406-.081.813-.2,1.219-.295.488-.12.979-.232,1.459-.376.425-.13.835-.288,1.25-.435s.886-.3,1.319-.484.858-.388,1.284-.589c.39-.185.782-.36,1.166-.563.453-.242.89-.508,1.329-.772.331-.2.665-.388.988-.61.476-.313.931-.652,1.386-.992.264-.2.532-.386.79-.593.482-.386.939-.8,1.4-1.219.167-.152.345-.286.51-.445.016-.014.022-.039.039-.055A28.414,28.414,0,0,0,49.02,8.768ZM44.453,46.815c-.37.325-.752.634-1.138.933-.228.175-.455.347-.689.514-.368.266-.742.518-1.122.76-.276.177-.559.347-.843.514q-.537.3-1.089.61c-.325.167-.656.323-.99.478s-.7.319-1.061.463-.742.28-1.118.406c-.343.118-.687.24-1.034.343-.406.122-.831.221-1.252.323-.329.077-.654.165-.988.23-.482.093-.973.158-1.467.226-.28.037-.559.087-.841.116-.78.075-1.571.12-2.369.12s-1.589-.045-2.369-.12c-.282-.028-.561-.079-.841-.116-.494-.067-.986-.132-1.467-.226-.333-.065-.658-.152-.988-.23-.421-.1-.839-.2-1.252-.323-.347-.1-.691-.226-1.034-.343-.376-.13-.752-.262-1.118-.406s-.711-.3-1.061-.463-.665-.311-.99-.478c-.368-.191-.732-.392-1.089-.61-.284-.167-.567-.337-.843-.514-.38-.242-.754-.494-1.122-.76-.234-.167-.461-.339-.689-.514-.386-.3-.768-.61-1.138-.933-.089-.067-.171-.152-.258-.23a16.3,16.3,0,0,1,11.081-15.23,12.049,12.049,0,0,0,10.351,0,16.3,16.3,0,0,1,11.081,15.23C44.621,46.663,44.54,46.74,44.453,46.815ZM21.364,16.3A8.128,8.128,0,1,1,32.433,27.372a.043.043,0,0,0-.035.012,8.61,8.61,0,0,1-1.7.719c-.106.03-.2.071-.315.1-.2.053-.417.089-.626.126a8.231,8.231,0,0,1-1.193.12h-.232a8.231,8.231,0,0,1-1.193-.12c-.2-.037-.419-.073-.626-.126-.108-.026-.2-.067-.315-.1a8.6,8.6,0,0,1-1.7-.719l-.037-.012A8.128,8.128,0,0,1,21.364,16.3ZM48.311,42.556h0a20.422,20.422,0,0,0-10.88-14.007,12.192,12.192,0,1,0-17.963,0A20.422,20.422,0,0,0,8.589,42.556a24.385,24.385,0,1,1,39.723,0Z" transform="translate(0 -0.011)" fill="#fff"/>
    </g>
  </g>
</svg>
