<svg xmlns="http://www.w3.org/2000/svg" width="506.981" height="332.566" viewBox="0 0 506.981 332.566">
  <g id="Logo_white" transform="translate(-238.919 -217.827)">
    <g id="Logo_corpo">
      <ellipse id="Elipse_4" data-name="Elipse 4" cx="32" cy="32.5" rx="32" ry="32.5" transform="translate(304 253)" fill="#fff"/>
      <path id="Caminho_1" data-name="Caminho 1" d="M2230.375,550.392l-1.457-1.295,6.635-4.046,10.681-6.473,8.739-5.826,7.93-6.15,6.635-5.5,7.121-5.988,7.282-6.635,6.15-6.15,5.664-6.311,5.178-5.988,5.341-6.959,4.046-5.5,4.855-8.253,3.561-6.959,3.237-7.768,4.208-10.519,2.427-10.2,1.457-10.843.721-10.2v-9.048l-1.645-9.32-2.1-10.309-5.049-15.779-6.732-13.675-6.943-11.466-7.931-11.76-8.205-10.079-7.111-8.945-8.73-8.856-9.32-9.042-9.776-8.752-8.772-7.6,8.772,3.546,19.1,11.166,14.727,10.681,10.882,8.856,8.538,8.945,6.959,7.606,7.282,9.063,5.5,7.93,3.884,7.121,2.084,6.2,1.316-6.2,1.618-8.253,1.456-5.826,2.266-7.561,2.427-7.327,2.751-6.473,3.237-6.635,3.4-6.635,2.913-5.34,2.751-5.017,4.208-6.311,4.046-5.826,5.179-6.959,4.855-6.15,5.826-6.959,5.664-5.826,6.473-6.311,7.121-6.473,7.93-6.635,10.033-7.606,8.092-5.988,8.415-5.179-1.133,2.266-7.282,8.092-6.635,6.8-5.664,6.959-5.826,6.959-4.855,6.15-4.046,5.5-5.179,7.282-5.017,7.121-4.693,8.253-4.369,6.959-4.046,8.092-3.884,7.606-3.722,8.739-3.237,8.253-3.075,9.386-2.913,9.548-1.942,7.93-1.625,11.814-.965,6.845v17.915l.965,7.121,1.625,7.93,1.295,7.121,2.589,9.063,3.56,8.739,4.208,9.548,5.341,10.2,5.826,8.253,6.15,8.253,6.635,7.93,6.473,7.121,7.444,6.959,9.063,8.253,8.092,6.311,6.473,4.693,8.092,5.826,9.225,6.15,8.739,5.179,7.93,4.37,7.444,4.369,11.328,5.179,9.548,4.531,6.959,3.884-13.918-2.589-13.917-3.56-15.374-4.693-10.681-3.884-10.357-4.37-8.739-4.531-9.71-5.179-9.224-5.664-6.959-5.017-6.635-4.693-6.15-4.693-6.473-5.826-5.664-5.5-4.855-5.5-5.5-6.15-4.369-5.826-3.884-5.34-3.237-4.855L2354.5,450.7l-2.589-4.693-2.427-5.179-1.875-4-.877,5.13-1.78,7.768-2.427,6.959-2.913,6.8-2.913,5.826-3.722,6.473-3.4,5.664-4.531,5.988-4.855,6.311-5.017,5.826-5.826,6.15-7.282,6.473-6.959,5.5-6.8,5.017-8.577,5.5-10.2,5.826-11.166,5.664-12.947,5.34Z" transform="translate(-1990)" fill="#fff"/>
    </g>
    <g id="Logo_texto">
      <path id="União_6" data-name="União 6" d="M-1735.787,105.524l-.133-71.418h15v71.418Zm-40.223-1.331a24.33,24.33,0,0,1-10.632-4.708,29.349,29.349,0,0,1-7.757-9.093A36.686,36.686,0,0,1-1798.56,78.2a42.23,42.23,0,0,1,.155-14,42.472,42.472,0,0,1,4.079-12.158,37.612,37.612,0,0,1,7.016-9.587c5.609-5.511,12.52-8.546,19.46-8.546a24.105,24.105,0,0,1,4.171.365,24.273,24.273,0,0,1,9.9,4.168V0h13V63.1a42.154,42.154,0,0,1,0,7.321V104h-13V97.315a30.2,30.2,0,0,1-8.536,5.339,25.2,25.2,0,0,1-9.522,1.9A24.064,24.064,0,0,1-1776.01,104.193Zm-6.462-57.292c-3.473,4.966-5.309,11.81-5.309,19.788,0,7.471,1.937,14.466,5.453,19.7,3.7,5.5,8.907,8.534,14.664,8.533a17.859,17.859,0,0,0,2.441-.171c5.512-.763,8.7-2.876,10.346-6.849,1.522-3.679,1.6-8.575,1.7-14.774.033-2.054.067-4.175.156-6.434.5-12.571-1.03-20-4.96-24.091-2.33-2.424-5.456-3.6-9.556-3.6A17.612,17.612,0,0,0-1782.472,46.9Zm82.949,54.78a32.047,32.047,0,0,1-10.214-7.57,35.588,35.588,0,0,1-6.887-11.228,38.151,38.151,0,0,1-2.524-13.75,38.149,38.149,0,0,1,2.524-13.749,35.584,35.584,0,0,1,6.887-11.228,32.034,32.034,0,0,1,10.214-7.57,29.459,29.459,0,0,1,12.508-2.776,29.459,29.459,0,0,1,12.508,2.776,32.055,32.055,0,0,1,10.213,7.57,35.583,35.583,0,0,1,6.887,11.228,38.129,38.129,0,0,1,2.525,13.749,38.13,38.13,0,0,1-2.525,13.75,35.588,35.588,0,0,1-6.887,11.228,32.055,32.055,0,0,1-10.213,7.57,29.458,29.458,0,0,1-12.508,2.776A29.458,29.458,0,0,1-1699.522,101.681Zm9.249-62.477c-4.867.6-9.062,4.256-11.813,10.3s-3.728,13.757-2.751,21.71a41.928,41.928,0,0,0,7.378,19.694c3.81,5.114,8.464,7.931,13.1,7.931a11.382,11.382,0,0,0,1.4-.086c4.867-.6,9.063-4.256,11.813-10.3s3.729-13.757,2.751-21.711c-.928-7.559-3.548-14.554-7.378-19.694-3.81-5.115-8.464-7.931-13.1-7.93A11.459,11.459,0,0,0-1690.273,39.2ZM-1813.781,104V91.355l-2.38,2.381-4.482,4.108-3.236,2.49-4.357,2.24-4.98,1h-5.1l-4.108-1-3.611-2.24-3.858-5.727-1-2.988-.658-3.619h-.229V36h13V87.865l1.208,2.634,2.988,2.739,6.349.5,4.98-1,5.726-4.108,3.75-3.356V36h13v68Zm-95.042-.2h-4.193l-4.136-.4-3.286-1.643-3.287-2.186-2.01-2.21-2.947-4.493-1.4-3.757-.374-3.9V80.5h3.321v4.419l.442,3.757,1.841,3.389,3.316,2.947,4.007,2.947,3.948,1.621,6.188.294,4.052-.958,3.315-1.915,2.431-2.431,1.133-1.694.413-2.8-.413-3.786-2.394-4.118L-1902.3,79.3l-4.118-2.586-5.267-3.16-5.841-3.352-5.65-3.352-4.692-4.6-2.586-4.693L-1931.508,52l.67-5.458,1.915-4.309,3.064-3.064,4.6-2.873,4.98-2.107h5.554l6.608.766,4.117,1.915,3.543,3.064,2.681,4.4,1.724,6.129.608,4.237h-3.56l-.443-2.981-1.927-5.44-4.589-5.213-3.627-1.587-5.156-1.076-4.532.76s-4.193,2.47-4.477,2.526a20.407,20.407,0,0,0-2.209,2.267l-.907,5.156.567,2.947,2.153,2.641,4.59,3.875,4.477,2.833,3.684,1.813s5.156,2.663,5.1,2.663,5.323,3,5.323,3l3.853,3.23,3.343,3.456,1.869,4.193.963,3.569v4.08l-.963,4.635-2.21,3.808-2.89,3.043-3.966,2.849-3.853,1.643-3.626.4Zm33.406-1.974-3.61-2.739-2.739-4.482-1-4.73v-47.8h-10.208V36.1h10.208V15.31h11.951l.249,20.789h15.095v5.975h-15.095v42.2l.5,3.61,1.245,3.983,1.992,1.37h3.859l2.988-.623,1.992-2.116,1.494-2.615h2.739L-1854.5,91l-1.992,3.61-2.988,4.482-4.482,2.739-6.1.622Zm-114.583.138V5.189h60.039v5.827h-45.8V48.4h38.678v5.826h-38.678V95.816h45.8v6.15Zm158.929-66.126,5.049-17.461h13.254l-14.306,17.461ZM-1736.78,23a8,8,0,0,1,8-8,8,8,0,0,1,8,8,8,8,0,0,1-8,8A8,8,0,0,1-1736.78,23Z" transform="translate(2400.78 273)" fill="#fff"/>
      <g id="Grupo_13" data-name="Grupo 13">
        <path id="Subtração_3" data-name="Subtração 3" d="M-1980.474,35.559a8.768,8.768,0,0,1-1.46-.124,9.132,9.132,0,0,1-5.914-3.877,12.987,12.987,0,0,1-1.921-9.726,13.614,13.614,0,0,1,3.882-7.4,9.93,9.93,0,0,1,6.808-2.906,8.664,8.664,0,0,1,1.459.124,8.617,8.617,0,0,1,3.463,1.417V0h4.549V21.456a14.081,14.081,0,0,1,0,2.5V35.369h-4.549V33.095A9.834,9.834,0,0,1-1980.474,35.559Zm1.5-22.3c-3.891,0-5.7,2.993-5.7,9.418,0,5.815,1.98,9.018,5.576,9.018a7,7,0,0,0,.935-.065c4.108-.553,4.146-2.778,4.216-6.817.012-.677.024-1.376.055-2.137.173-4.236-.349-6.75-1.695-8.151A4.431,4.431,0,0,0-1978.97,13.262Z" transform="translate(2551.712 374)" fill="#fff"/>
        <g id="Componente_2_11" data-name="Componente 2 – 11" transform="translate(582.442 383.809)">
          <path id="Subtração_1" data-name="Subtração 1" d="M10.748,27.647A9.87,9.87,0,0,1,3.013,23.6a15.753,15.753,0,0,1-3.2-9.774,15.755,15.755,0,0,1,3.2-9.775A9.87,9.87,0,0,1,10.748,0a9.87,9.87,0,0,1,7.735,4.049,15.755,15.755,0,0,1,3.2,9.775,15.753,15.753,0,0,1-3.2,9.774A9.87,9.87,0,0,1,10.748,27.647ZM10.434,3.708a3.245,3.245,0,0,0-1.657.469c-2.8,1.644-4.1,7.151-2.9,12.276A11.968,11.968,0,0,0,8.17,21.4a4.433,4.433,0,0,0,3.309,1.838,3.249,3.249,0,0,0,1.658-.469c2.8-1.644,4.1-7.151,2.9-12.276a11.964,11.964,0,0,0-2.293-4.944A4.434,4.434,0,0,0,10.434,3.708Z" transform="translate(0.191 0)" fill="#fff"/>
        </g>
      </g>
      <g id="Grupo_14" data-name="Grupo 14">
        <g id="Componente_2_12" data-name="Componente 2 – 12" transform="translate(499.633 415.809)">
          <path id="Subtração_1-2" data-name="Subtração 1" d="M34.634,78.647a30.909,30.909,0,0,1-13.481-3.09A34.636,34.636,0,0,1,10.144,67.13a39.862,39.862,0,0,1-7.422-12.5,44.4,44.4,0,0,1,0-30.613,39.862,39.862,0,0,1,7.422-12.5A34.636,34.636,0,0,1,21.153,3.09a30.95,30.95,0,0,1,26.962,0,34.634,34.634,0,0,1,11.008,8.427,39.862,39.862,0,0,1,7.422,12.5,44.4,44.4,0,0,1,0,30.613,39.862,39.862,0,0,1-7.422,12.5,34.634,34.634,0,0,1-11.008,8.427A30.909,30.909,0,0,1,34.634,78.647ZM32.512,5.612a12.693,12.693,0,0,0-1.554.1c-5.421.672-10.093,4.784-13.157,11.579s-4.152,15.46-3.064,24.4c1.034,8.495,3.952,16.355,8.218,22.132,4.244,5.747,9.427,8.913,14.593,8.913a12.755,12.755,0,0,0,1.554-.1C44.523,71.962,49.2,67.85,52.26,61.055s4.152-15.46,3.065-24.4c-1.034-8.5-3.953-16.355-8.218-22.132C42.862,8.777,37.679,5.612,32.512,5.612Z" transform="translate(0 0)" fill="#fff"/>
        </g>
        <g id="Componente_2_13" data-name="Componente 2 – 13" transform="translate(675.633 415.809)">
          <path id="Subtração_1-3" data-name="Subtração 1" d="M34.634,78.647a30.909,30.909,0,0,1-13.481-3.09A34.636,34.636,0,0,1,10.144,67.13a39.862,39.862,0,0,1-7.422-12.5,44.4,44.4,0,0,1,0-30.613,39.862,39.862,0,0,1,7.422-12.5A34.636,34.636,0,0,1,21.153,3.09a30.95,30.95,0,0,1,26.962,0,34.634,34.634,0,0,1,11.008,8.427,39.862,39.862,0,0,1,7.422,12.5,44.4,44.4,0,0,1,0,30.613,39.862,39.862,0,0,1-7.422,12.5,34.634,34.634,0,0,1-11.008,8.427A30.909,30.909,0,0,1,34.634,78.647ZM32.512,5.612a12.693,12.693,0,0,0-1.554.1c-5.421.672-10.093,4.784-13.157,11.579s-4.152,15.46-3.064,24.4c1.034,8.495,3.952,16.355,8.218,22.132,4.244,5.747,9.427,8.913,14.593,8.913a12.755,12.755,0,0,0,1.554-.1C44.523,71.962,49.2,67.85,52.26,61.055s4.152-15.46,3.065-24.4c-1.034-8.5-3.953-16.355-8.218-22.132C42.862,8.777,37.679,5.612,32.512,5.612Z" transform="translate(0 0)" fill="#fff"/>
        </g>
        <path id="União_4" data-name="União 4" d="M-1990,74V0h14V12.832l1.318-1.582,2.1-2.493,2.323-2.833,2.509-2.554,2.581-1.944,1.993-.885,2.069-.276h2.631l1.676.276,1.084.549,1.444.825.077,13.721-2.141-2.218-1.625-1.909-1.392-1.444-1.189-.257-2.783-.167h-1.844l-1.609.425-1.341.95-1.676,1.643-2.107,2.615-2.777,3.4L-1976,20.782V74Z" transform="translate(2562 417)" fill="#fff"/>
        <path id="União_5" data-name="União 5" d="M-1990,109.6V.6h13v9.782q.671-.7,1.372-1.368C-1969.5,3.2-1962.059,0-1954.666,0a25.88,25.88,0,0,1,5.368.564,26.191,26.191,0,0,1,11.356,5.548,31.967,31.967,0,0,1,8.056,10.256,40.4,40.4,0,0,1,4.026,13.53,46.834,46.834,0,0,1-.734,15.363,47.2,47.2,0,0,1-4.8,12.979,41.716,41.716,0,0,1-7.79,10.172c-6.125,5.811-13.569,9.013-20.963,9.013h0a25.864,25.864,0,0,1-5.366-.564,26.2,26.2,0,0,1-11.356-5.547l-.129-.107V109.6Zm14.151-45.933c3.966,5.76,9.24,8.933,14.849,8.933s10.883-3.173,14.849-8.933S-1940,50.244-1940,42.1s-2.184-15.807-6.151-21.567S-1955.391,11.6-1961,11.6s-10.883,3.172-14.849,8.933q-.6.876-1.151,1.809V61.855Q-1976.453,62.787-1975.849,63.664Z" transform="translate(2600 416.403)" fill="#fff"/>
        <path id="Subtração_6" data-name="Subtração 6" d="M-1938,114a47.8,47.8,0,0,1-20.241-4.479,51.848,51.848,0,0,1-16.529-12.216,57.428,57.428,0,0,1-11.145-18.119A61.394,61.394,0,0,1-1990,57a60.817,60.817,0,0,1,4.015-22,55.772,55.772,0,0,1,11.025-17.8A53.326,53.326,0,0,1-1938,0c.7-.033,1.415-.05,2.13-.05a44.248,44.248,0,0,1,19.688,4.595,49.8,49.8,0,0,1,15.821,12.413,57.111,57.111,0,0,1,6.442,9.231l-4.966,2.74c-7.811-13.957-20.63-22.45-34.292-22.721-.175,0-.383-.006-.6-.006-10.2,0-19.779,5.076-26.979,14.291C-1968.007,29.77-1972,42.2-1972,55.5c0,30,15.2,48.92,39.665,49.376.3.005.58.008.868.008a35.82,35.82,0,0,0,23.291-7.932l3.363,3.936a51.213,51.213,0,0,1-12.946,8.633A47.793,47.793,0,0,1-1938,114Z" transform="translate(2408 379)" fill="#fff"/>
      </g>
    </g>
  </g>
</svg>
