<svg xmlns="http://www.w3.org/2000/svg" width="274.144" height="332.566" viewBox="0 0 274.144 332.566">
  <g id="Logo_corpo" transform="translate(-238.919 -217.827)">
    <ellipse id="Elipse_4" data-name="Elipse 4" cx="32" cy="32.5" rx="32" ry="32.5" transform="translate(304 253)" fill="#30f129"/>
    <path id="Caminho_1" data-name="Caminho 1" d="M2230.375,550.392l-1.457-1.295,6.635-4.046,10.681-6.473,8.739-5.826,7.93-6.15,6.635-5.5,7.121-5.988,7.282-6.635,6.15-6.15,5.664-6.311,5.178-5.988,5.341-6.959,4.046-5.5,4.855-8.253,3.561-6.959,3.237-7.768,4.208-10.519,2.427-10.2,1.457-10.843.721-10.2v-9.048l-1.645-9.32-2.1-10.309-5.049-15.779-6.732-13.675-6.943-11.466-7.931-11.76-8.205-10.079-7.111-8.945-8.73-8.856-9.32-9.042-9.776-8.752-8.772-7.6,8.772,3.546,19.1,11.166,14.727,10.681,10.882,8.856,8.538,8.945,6.959,7.606,7.282,9.063,5.5,7.93,3.884,7.121,2.084,6.2,1.316-6.2,1.618-8.253,1.456-5.826,2.266-7.561,2.427-7.327,2.751-6.473,3.237-6.635,3.4-6.635,2.913-5.34,2.751-5.017,4.208-6.311,4.046-5.826,5.179-6.959,4.855-6.15,5.826-6.959,5.664-5.826,6.473-6.311,7.121-6.473,7.93-6.635,10.033-7.606,8.092-5.988,8.415-5.179-1.133,2.266-7.282,8.092-6.635,6.8-5.664,6.959-5.826,6.959-4.855,6.15-4.046,5.5-5.179,7.282-5.017,7.121-4.693,8.253-4.369,6.959-4.046,8.092-3.884,7.606-3.722,8.739-3.237,8.253-3.075,9.386-2.913,9.548-1.942,7.93-1.625,11.814-.965,6.845v17.915l.965,7.121,1.625,7.93,1.295,7.121,2.589,9.063,3.56,8.739,4.208,9.548,5.341,10.2,5.826,8.253,6.15,8.253,6.635,7.93,6.473,7.121,7.444,6.959,9.063,8.253,8.092,6.311,6.473,4.693,8.092,5.826,9.225,6.15,8.739,5.179,7.93,4.37,7.444,4.369,11.328,5.179,9.548,4.531,6.959,3.884-13.918-2.589-13.917-3.56-15.374-4.693-10.681-3.884-10.357-4.37-8.739-4.531-9.71-5.179-9.224-5.664-6.959-5.017-6.635-4.693-6.15-4.693-6.473-5.826-5.664-5.5-4.855-5.5-5.5-6.15-4.369-5.826-3.884-5.34-3.237-4.855L2354.5,450.7l-2.589-4.693-2.427-5.179-1.875-4-.877,5.13-1.78,7.768-2.427,6.959-2.913,6.8-2.913,5.826-3.722,6.473-3.4,5.664-4.531,5.988-4.855,6.311-5.017,5.826-5.826,6.15-7.282,6.473-6.959,5.5-6.8,5.017-8.577,5.5-10.2,5.826-11.166,5.664-12.947,5.34Z" transform="translate(-1990)" fill="#30f129"/>
  </g>
</svg>
